<svg width="259" height="52" viewBox="0 0 259 52" fill="none" xmlns="http://www.w3.org/2000/svg">
<g clip-path="url(#clip0_20_671)">
<path d="M137.857 6.14609C133.876 3.22344 128.736 1.51016 120.976 1.51016H105.557V50.5906H120.976C128.787 50.5906 133.876 48.9277 137.857 45.9547C143.904 41.4699 147.582 34.1633 147.582 26.0504C147.633 17.9375 143.904 10.6309 137.857 6.14609ZM134.582 36.7332C131.861 40.1598 127.829 42.2258 122.034 42.2258H115.03V9.97578H122.034C127.88 9.97578 131.861 11.9914 134.582 15.4684C136.849 18.2902 138.159 22.0695 138.159 26.1512C138.159 30.132 136.799 33.9113 134.582 36.7332ZM166.832 15.9219C156.502 15.9219 148.741 23.8332 148.741 33.6594C148.741 43.4855 156.552 51.3465 166.832 51.3465C177.162 51.3465 184.922 43.4855 184.922 33.6594C184.922 23.8332 177.111 15.9219 166.832 15.9219ZM166.832 42.9312C161.49 42.9312 157.862 38.7992 157.862 33.6594C157.862 28.5195 161.49 24.3371 166.832 24.3371C172.173 24.3371 175.801 28.5699 175.801 33.6594C175.801 38.7488 172.173 42.9312 166.832 42.9312ZM235.061 33.609L258.593 50.5906H244.232L244.181 50.5402L222.312 34.7176V0.804688H231.432V30.9887L233.146 32.198V24.6395L244.332 16.577H258.643L235.061 33.609ZM222.312 36.7836V50.641H231.432V43.3848L222.312 36.7836ZM219.339 34.6168L210.268 41.3691C206.64 43.7375 201.5 43.2336 198.427 40.1598C194.849 36.582 194.899 30.6359 198.477 27.0078C200.241 25.2441 202.609 24.3371 205.028 24.3371C206.741 24.3371 208.404 24.7906 209.916 25.748L220.598 33.5082V23.1781L214.552 18.7941C207.598 14.3094 198.225 15.166 192.229 20.8602C184.922 27.7133 184.821 39.3535 191.775 46.1059C197.973 52.1023 207.648 53.0094 214.703 48.3734L220.649 44.0902V35.5238L219.339 34.6168Z" fill="white"/>
<path d="M44.8941 0.679688V28.2937L35.8238 37.4145V6.12188L34.1105 4.9125V9.09492H22.8734V50.4656H13.4504V9.09492H0.5V0.679688H44.8941Z" fill="#0074FF"/>
<path d="M35.8242 39.733V50.4662H44.8945V30.6123L35.8242 39.733Z" fill="#0074FF"/>
<path d="M65.8562 21.3396C63.0848 17.9635 58.8016 15.8975 54.1152 15.8975C51.3438 15.8975 48.7738 16.6533 46.5566 17.9131V26.7314C48.1691 25.4213 50.4871 24.2623 53.1074 24.2623C55.2238 24.2623 57.0379 24.9678 58.1969 26.1268C59.4566 27.3865 60.2125 29.1502 60.2125 32.476V50.4654H69.2828V33.2318C69.3836 27.3865 68.1238 23.96 65.8562 21.3396Z" fill="#0074FF"/>
<path d="M102.843 45.124C99.5672 49.0545 94.1754 51.2213 88.9348 51.2213C78.8062 51.2213 71.1973 44.217 71.1973 33.5846C71.1973 24.1615 77.6473 15.8975 87.675 15.8975C97.0477 15.8975 103.699 23.8088 103.699 33.2318C103.699 34.1389 103.649 35.0459 103.498 35.8018H80.0156C80.5195 40.5385 84.3492 43.8643 89.1867 43.8643C93.0164 43.8643 96.0902 41.6975 97.7027 39.9338L102.843 45.124ZM94.377 29.1502C94.0746 26.1268 91.3535 23.2041 87.675 23.2041C83.8957 23.2041 80.8219 26.0764 80.4188 29.1502H94.377Z" fill="#0074FF"/>
</g>
<defs>
<clipPath id="clip0_20_671">
<rect width="258" height="51.3984" fill="white" transform="translate(0.642578 0.300781)"/>
</clipPath>
</defs>
</svg>
